{"title":"Final Destination 2000 DVDrip English Klam","uid":6640166,"size":1476345725,"categoryP":"video","categoryS":"movies","magnet":"?xt=urn:btih:4590b701ea5dc8eb20c1e1d9348ec4bcf9ff3588&amp;dn=Final+Destination+2000+DVDrip+English+Klam&amp;tr=udp%3A%2F%2Ftracker.openbittorrent.com%3A80&amp;tr=udp%3A%2F%2Fopen.demonii.com%3A1337&amp;tr=udp%3A%2F%2Ftracker.coppersurfer.tk%3A6969&amp;tr=udp%3A%2F%2Fexodus.desync.com%3A6969","seeders":0,"leechers":1,"uploader":"Klambake","files":-1,"time":1314712453,"description":"With: Devon Sawa, Ali Larter and Kerr Smith\n\nScholier Alex zit met zijn klas in een Boeing 747 te wachten op de start. Ineens voorziet Alex dat het toestel zal ontploffen. Hij raakt in paniek en wordt met een paar medeleerlingen en hun lerares het vliegtuig uitgezet. Enkele ogenblikken later zien ze vanaf de grond 'hun' toestel opstijgen en veranderen in een vuurbal. Kort daarna sterft ÃƒÂ©ÃƒÂ©n van de overlevenden. Als daarna de volgende omkomt, begint Alex een angstaanjagend vermoeden te krijgen. Stel nu dat het de bedoeling was dat ze allemaal een gruwelijke dood zouden sterven. Dat de 'Dood' hen alsnog komt halen. Dat er niets tegen te doen was. Of kun je de 'Dood' te slim af zijn?\n\nAfter a teenager has a terrifying vision of him and his friends dying in a plane crash, he prevents the accident only to have Death hunt them down, one by one. \n\n------------------ Dutch Friends ------------------\nYou can find my Friends at: http://www.Film-Test.nl \n------ They got my dutchs subs ---- and more ------\n\nGeneral:\n\nComplete name                    : Final Destination\\Final Destination.avi\nFormat                           : AVI\nFormat/Info                      : Audio Video Interleave\nFile size                        : 1.37 GiB\nDuration                         : 1h 33mn\nOverall bit rate                 : 2 092 Kbps\n\nVideo:\n\nFormat                           : MPEG-4 Visual\nFormat profile                   : Simple@L3\nFormat settings, BVOP            : No\nFormat settings, QPel            : No\nFormat settings, GMC             : No warppoints\nFormat settings, Matrix          : Default (H.263)\nCodec ID                         : XVID\nCodec ID/Hint                    : XviD\nDuration                         : 1h 33mn\nBit rate                         : 1 633 Kbps\nWidth                            : 652 pixels\nHeight                           : 352 pixels\nDisplay aspect ratio             : 1.852\nFrame rate                       : 25.000 fps\nColor space                      : YUV\nChroma subsampling               : 4:2:0\nBit depth                        : 8 bits\nScan type                        : Progressive\nBits/(Pixel*Frame)               : 0.285\nStream size                      : 1.07 GiB (78%)\nWriting library                  : XviD 1.1.2 (UTC 2006-11-01)\n\nAudio:\n\nFormat                           : AC-3\nFormat/Info                      : Audio Coding 3\nMode extension                   : CM (complete main)\nCodec ID                         : 2000\nDuration                         : 1h 33mn\nBit rate mode                    : Constant\nBit rate                         : 448 Kbps\nChannel(s)                       : 6 channels\nChannel positions                : Front: L C R, Side: L R, LFE\nSampling rate                    : 48.0 KHz\nBit depth                        : 16 bits\nStream size                      : 301 MiB (21%)\nAlignment                        : Aligned on interleaves\nInterleave, duration             : 32 ms (0.80 video frame)\nInterleave, preload duration     : 256 ms\n\n\n","torrent":{"xt":"urn:btih:4590b701ea5dc8eb20c1e1d9348ec4bcf9ff3588","amp;dn":"Final+Destination+2000+DVDrip+English+Klam","amp;tr":["udp%3A%2F%2Ftracker.openbittorrent.com%3A80","udp%3A%2F%2Fopen.demonii.com%3A1337","udp%3A%2F%2Ftracker.coppersurfer.tk%3A6969","udp%3A%2F%2Fexodus.desync.com%3A6969"],"infoHash":"4590b701ea5dc8eb20c1e1d9348ec4bcf9ff3588","infoHashBuffer":{"type":"Buffer","data":[69,144,183,1,234,93,200,235,32,193,225,217,52,142,196,188,249,255,53,136]},"announce":[],"urlList":[]}}